# xmcd CD database file
#
# Track frame offsets:
#	150
#	85356
#	219506
#
# Disc length: 3293 seconds
#
# Revision: 0
# Processed by: cddbd v1.5.2PL0 Copyright (c) Steve Scherf et al.
# Submitted via: CDex 1.70beta2
#
DISCID=220cdb03
DTITLE=Lise Bourbeau - Vendre avec coeur - CD3
DYEAR=2004
DGENRE=New Age
TTITLE0=Piste 01
TTITLE1=Piste 02
TTITLE2=Piste 03
EXTD=YEAR: 2004
EXTT0=
EXTT1=
EXTT2=
PLAYORDER=
